HIERARCHY
ROOT Hips
{
    OFFSET 0.000000 0.000000 0.000000
    CHANNELS 6 Xposition Yposition Zposition Zrotation Xrotation Yrotation
    JOINT Spine
    {
        OFFSET -0.000000 8.104110 0.000000
        CHANNELS 3 Zrotation Xrotation Yrotation
        JOINT Spine1
        {
            OFFSET -0.000000 22.417536 0.000000
            CHANNELS 3 Zrotation Xrotation Yrotation
            JOINT Neck
            {
                OFFSET -0.000000 22.325472 2.029588
                CHANNELS 3 Zrotation Xrotation Yrotation
                JOINT Head
                {
                    OFFSET -0.000000 13.836284 -1.976612
                    CHANNELS 3 Zrotation Xrotation Yrotation
                    End Site
                    {
                        OFFSET -0.000000 24.707651 0.000000
                    }
                }
            }
            JOINT LeftShoulder
            {
                OFFSET 3.973640 20.379602 -0.279950
                CHANNELS 3 Zrotation Xrotation Yrotation
                JOINT LeftArm
                {
                    OFFSET 11.493720 0.000000 0.000000
                    CHANNELS 3 Zrotation Xrotation Yrotation
                    JOINT LeftForeArm
                    {
                        OFFSET 31.336695 0.000000 0.000000
                        CHANNELS 3 Zrotation Xrotation Yrotation
                        JOINT LeftHand
                        {
                            OFFSET 29.043781 0.000000 0.000000
                            CHANNELS 3 Zrotation Xrotation Yrotation
                            End Site
                            {
                                OFFSET 14.824592 0.000000 0.000000
                            }
                        }
                    }
                }
            }
            JOINT RightShoulder
            {
                OFFSET -3.921018 20.379602 -0.279950
                CHANNELS 3 Zrotation Xrotation Yrotation
                JOINT RightArm
                {
                    OFFSET -11.493720 0.000000 0.000000
                    CHANNELS 3 Zrotation Xrotation Yrotation
                    JOINT RightForeArm
                    {
                        OFFSET -31.336695 0.000000 0.000000
                        CHANNELS 3 Zrotation Xrotation Yrotation
                        JOINT RightHand
                        {
                            OFFSET -29.043781 0.000000 0.000000
                            CHANNELS 3 Zrotation Xrotation Yrotation
                            End Site
                            {
                                OFFSET -14.824592 0.000000 0.000000
                            }
                        }
                    }
                }
            }
        }
    }
    JOINT LeftUpLeg
    {
        OFFSET 9.883060 0.000000 0.000000
        CHANNELS 3 Zrotation Xrotation Yrotation
        JOINT LeftLeg
        {
            OFFSET -0.000000 -43.587502 0.000000
            CHANNELS 3 Zrotation Xrotation Yrotation
            JOINT LeftFoot
            {
                OFFSET -0.000000 -41.501083 0.000000
                CHANNELS 3 Zrotation Xrotation Yrotation
                JOINT LeftToeBase
                {
                    OFFSET -0.000000 -6.423989 14.824592
                    CHANNELS 3 Zrotation Xrotation Yrotation
                    End Site
                    {
                        OFFSET -0.000000 0.000000 3.953224
                    }
                }
            }
        }
    }
    JOINT RightUpLeg
    {
        OFFSET -9.883060 0.000000 0.000000
        CHANNELS 3 Zrotation Xrotation Yrotation
        JOINT RightLeg
        {
            OFFSET -0.000000 -43.587502 0.000000
            CHANNELS 3 Zrotation Xrotation Yrotation
            JOINT RightFoot
            {
                OFFSET -0.000000 -41.501083 0.000000
                CHANNELS 3 Zrotation Xrotation Yrotation
                JOINT RightToeBase
                {
                    OFFSET -0.000000 -6.423989 14.824592
                    CHANNELS 3 Zrotation Xrotation Yrotation
                    End Site
                    {
                        OFFSET -0.000000 0.000000 3.953224
                    }
                }
            }
        }
    }
}
MOTION
Frames:    14
Frame Time:    0.008333
-2.227619    95.493088    42.628731    -0.951188    1.013672    -173.911652    -2.856110    -8.786676    -0.513230    0.329539    5.481489    -0.309725    0.825376    15.327337    -1.105172    2.092826    6.084638    -0.968782    17.431604    -2.567804    -2.478778    -15.444671    -1.953419    3.941311    -0.646517    1.993188    2.553477    6.843046    1.803927    -3.407542    -19.149786    -3.220550    -6.752924    16.377758    -5.340655    -0.323996    0.345476    -2.514038    -4.789849    1.881499    -2.621848    -7.440886    1.519922    9.573608    -5.454720    0.594037    -4.267563    -0.005043    -6.893840    1.303351    8.043546    0.000000    0.000000    0.000000    -3.612666    13.349600    -1.021978    2.829447    -6.734896    -1.030180    3.869445    -1.715127    -14.223413    0.000000    0.000000    0.000000    
-2.235062    95.489998    42.626511    -0.948387    1.007809    -173.921112    -2.857439    -8.786195    -0.508281    0.346902    5.465665    -0.305451    0.827831    15.351296    -1.098933    2.054342    6.065785    -0.965242    17.419283    -2.554641    -2.510964    -15.437540    -1.981608    3.966115    -0.639107    2.007749    2.551576    6.816049    1.819457    -3.402004    -19.161924    -3.216050    -6.747635    16.374775    -5.300891    -0.340346    0.343223    -2.515057    -4.787952    1.924754    -2.625536    -7.426721    1.519738    9.576974    -5.457024    0.594541    -4.272970    -0.047103    -6.896532    1.272401    8.080441    0.000000    0.000000    0.000000    -3.614624    13.344444    -1.023772    2.824248    -6.740309    -1.032605    3.867971    -1.713250    -14.208715    0.000000    0.000000    0.000000    
-2.239265    95.487526    42.625725    -0.924203    1.023563    -173.914963    -2.817190    -8.777153    -0.513314    0.336146    5.487978    -0.313384    0.838999    15.326356    -1.078961    2.003326    6.070476    -0.949412    17.403959    -2.559053    -2.493193    -15.412331    -1.938187    3.949130    -0.653370    1.990307    2.561372    6.835364    1.802874    -3.383436    -19.155302    -3.234968    -6.754719    16.357630    -5.267313    -0.343411    0.354179    -2.514678    -4.783085    1.911000    -2.623566    -7.410817    1.545742    9.605247    -5.455084    0.592266    -4.305162    -0.036977    -6.891229    1.261518    8.061201    0.000000    0.000000    0.000000    -3.586876    13.362551    -1.040754    2.817574    -6.747568    -1.031544    3.872010    -1.701945    -14.185954    0.000000    0.000000    0.000000    
-2.246036    95.488846    42.628742    -0.926531    1.021182    -173.914322    -2.810525    -8.760386    -0.507909    0.319594    5.465447    -0.307831    0.849640    15.355809    -1.061750    2.005730    6.025351    -0.930401    17.424713    -2.553830    -2.519614    -15.419247    -1.979124    3.955841    -0.620269    1.942790    2.581735    6.780022    1.750582    -3.481364    -19.133497    -3.214897    -6.771089    16.345213    -5.293369    -0.339580    0.358111    -2.488628    -4.783180    1.897587    -2.596346    -7.402424    1.540993    9.600878    -5.463471    0.588493    -4.306556    -0.046219    -6.891663    1.269366    8.090781    0.000000    0.000000    0.000000    -3.599476    13.356612    -1.016998    2.824654    -6.745361    -1.050550    3.879203    -1.695946    -14.196420    0.000000    0.000000    0.000000    
-2.252490    95.491653    42.630150    -0.924558    1.025634    -173.915802    -2.800594    -8.732679    -0.511605    0.318633    5.422617    -0.312831    0.855079    15.363952    -1.036377    1.969031    6.056290    -0.907848    17.411627    -2.513533    -2.531856    -15.410722    -1.989969    3.965259    -0.614530    1.922806    2.571454    6.777708    1.730333    -3.484150    -19.128365    -3.208364    -6.747869    16.338856    -5.290423    -0.361817    0.347703    -2.482305    -4.770947    1.937833    -2.593068    -7.401523    1.535934    9.608491    -5.464490    0.593763    -4.308854    -0.040016    -6.909332    1.267109    8.096367    0.000000    0.000000    0.000000    -3.597054    13.362590    -0.980541    2.818123    -6.751249    -1.112268    3.865068    -1.681277    -14.173931    0.000000    0.000000    0.000000    
-2.256962    95.493965    42.633549    -0.922592    1.022056    -173.909515    -2.803215    -8.724138    -0.510772    0.326625    5.420674    -0.312425    0.885023    15.354878    -1.031454    1.916440    6.049839    -0.907671    17.415756    -2.519978    -2.530611    -15.404694    -2.010528    3.946240    -0.629342    1.927282    2.583261    6.793203    1.734085    -3.495458    -19.138594    -3.202555    -6.774919    16.353600    -5.260091    -0.360325    0.343433    -2.500594    -4.756217    1.906486    -2.609696    -7.411698    1.536399    9.609570    -5.482789    0.595111    -4.330372    -0.005090    -6.905680    1.296756    8.079002    0.000000    0.000000    0.000000    -3.593152    13.362118    -0.984370    2.807098    -6.765862    -1.124173    3.899841    -1.660961    -14.170494    0.000000    0.000000    0.000000    
-2.263670    95.495651    42.636715    -0.922414    1.024543    -173.910980    -2.786801    -8.701635    -0.512246    0.309411    5.394006    -0.315004    0.866730    15.377526    -1.011807    1.943804    6.029084    -0.884008    17.416475    -2.498937    -2.548658    -15.399669    -1.998923    3.968519    -0.642728    1.925179    2.571523    6.796132    1.731264    -3.509284    -19.122723    -3.188730    -6.781076    16.350540    -5.281943    -0.331714    0.333688    -2.500569    -4.785628    1.890055    -2.608943    -7.412289    1.527706    9.610552    -5.480774    0.600513    -4.331879    0.025474    -6.895982    1.316789    8.050973    0.000000    0.000000    0.000000    -3.598716    13.360960    -0.980459    2.808030    -6.753249    -1.051743    3.881182    -1.671475    -14.240206    0.000000    0.000000    0.000000    
-2.269401    95.499596    42.640079    -0.921455    1.028219    -173.905167    -2.776249    -8.686545    -0.517684    0.298429    5.381176    -0.320965    0.899557    15.381840    -1.005267    1.886400    6.033066    -0.882695    17.417231    -2.491649    -2.552250    -15.386662    -2.037827    3.966852    -0.647957    1.945889    2.573629    6.764373    1.753111    -3.508643    -19.112965    -3.194132    -6.775841    16.348301    -5.319890    -0.334600    0.327396    -2.491507    -4.791632    1.893538    -2.600054    -7.392074    1.530167    9.610586    -5.496848    0.594578    -4.326952    0.011812    -6.907124    1.312108    8.072129    0.000000    0.000000    0.000000    -3.595784    13.362567    -1.005293    2.801720    -6.759442    -1.110274    3.917530    -1.636762    -14.170877    0.000000    0.000000    0.000000    
-2.274344    95.500717    42.644539    -0.923740    1.018302    -173.908997    -2.781774    -8.682069    -0.515110    0.309676    5.370352    -0.318601    0.883412    15.377744    -0.995993    1.899400    6.029542    -0.871802    17.414827    -2.483182    -2.567367    -15.385368    -2.052960    3.967039    -0.652607    1.957772    2.584635    6.785312    1.762729    -3.539540    -19.126324    -3.200011    -6.781128    16.353893    -5.275497    -0.356586    0.341850    -2.526403    -4.762905    1.863433    -2.633050    -7.429275    1.522746    9.598740    -5.505286    0.595795    -4.322311    0.005003    -6.903991    1.295585    8.078936    0.000000    0.000000    0.000000    -3.602321    13.347751    -1.000067    2.799296    -6.753089    -1.094267    3.907885    -1.644781    -14.190661    0.000000    0.000000    0.000000    
-2.279325    95.504341    42.647804    -0.924985    1.024099    -173.907776    -2.771120    -8.672296    -0.517107    0.289056    5.379611    -0.320557    0.900518    15.337548    -0.980143    1.890192    6.077061    -0.857333    17.435173    -2.503160    -2.558295    -15.392373    -2.025224    3.962028    -0.641828    1.923997    2.579486    6.780717    1.729290    -3.531029    -19.106833    -3.218864    -6.785359    16.345747    -5.288465    -0.356735    0.344407    -2.533764    -4.768455    1.852126    -2.639643    -7.434041    1.517050    9.602396    -5.501912    0.598588    -4.326118    0.023019    -6.889868    1.318462    8.064767    0.000000    0.000000    0.000000    -3.608320    13.352650    -0.982935    2.803633    -6.751036    -1.102400    3.907013    -1.649667    -14.204244    0.000000    0.000000    0.000000    
-2.285110    95.505020    42.652504    -0.929536    1.023269    -173.910233    -2.782986    -8.654202    -0.513393    0.310934    5.360947    -0.317284    0.895247    15.370726    -0.975440    1.885607    6.009063    -0.851381    17.425192    -2.486364    -2.584504    -15.393073    -2.034006    3.969467    -0.649396    1.939056    2.572762    6.824532    1.746086    -3.481901    -19.121969    -3.190609    -6.800962    16.356079    -5.297908    -0.352065    0.345667    -2.564848    -4.763439    1.839681    -2.669749    -7.424717    1.506370    9.599341    -5.497178    0.598676    -4.326343    0.018618    -6.885640    1.333554    8.081104    0.000000    0.000000    0.000000    -3.623347    13.346759    -0.977533    2.814615    -6.745856    -1.084640    3.912858    -1.657047    -14.229078    0.000000    0.000000    0.000000    
-2.290044    95.506012    42.656582    -0.930145    1.017568    -173.911819    -2.775229    -8.648520    -0.514921    0.301159    5.350039    -0.319049    0.921258    15.385211    -0.980912    1.842691    5.991694    -0.860865    17.415054    -2.466880    -2.595403    -15.372345    -2.062303    3.965224    -0.660790    1.944918    2.587917    6.873669    1.750791    -3.481771    -19.111189    -3.196891    -6.798892    16.349949    -5.328342    -0.346738    0.350326    -2.550285    -4.774798    1.839114    -2.655021    -7.430291    1.495595    9.593666    -5.491851    0.614223    -4.322221    0.014316    -6.914267    1.329925    8.081518    0.000000    0.000000    0.000000    -3.624516    13.342123    -0.973457    2.810904    -6.750588    -1.084807    3.903934    -1.646782    -14.229975    0.000000    0.000000    0.000000    
-2.292938    95.507553    42.662830    -0.936481    1.035345    -173.902176    -2.786588    -8.603017    -0.521801    0.312694    5.324030    -0.326689    0.903961    15.391160    -0.970195    1.872035    5.986893    -0.846727    17.404245    -2.484252    -2.608033    -15.368339    -2.043095    3.980707    -0.660009    1.937505    2.587489    6.914490    1.741399    -3.493736    -19.097643    -3.181139    -6.805218    16.342657    -5.331302    -0.329179    0.349698    -2.570254    -4.781635    1.806729    -2.672904    -7.432150    1.496516    9.601046    -5.503219    0.598298    -4.315930    0.025600    -6.882026    1.346460    8.071852    0.000000    0.000000    0.000000    -3.627488    13.359797    -0.957301    2.802554    -6.760828    -1.132659    3.925245    -1.633136    -14.214314    0.000000    0.000000    0.000000    
-2.294388    95.508888    42.667904    -0.932400    1.029420    -173.904053    -2.784410    -8.595602    -0.526895    0.315642    5.315936    -0.332229    0.922428    15.411150    -0.959087    1.841999    5.933157    -0.837029    17.403610    -2.461272    -2.604420    -15.361403    -2.061206    3.972074    -0.661885    1.931282    2.592336    6.882138    1.736742    -3.485402    -19.098118    -3.194972    -6.794318    16.348272    -5.305579    -0.339436    0.342945    -2.579600    -4.776330    1.822055    -2.683647    -7.438741    1.501102    9.587782    -5.490297    0.592356    -4.303947    0.007715    -6.883700    1.335984    8.073758    0.000000    0.000000    0.000000    -3.624877    13.349385    -0.946065    2.799821    -6.757742    -1.126003    3.921811    -1.629655    -14.224912    0.000000    0.000000    0.000000    
